<svg width="18" height="30" viewBox="0 0 18 30" fill="none" xmlns="http://www.w3.org/2000/svg"><path d="M7.227 10.798v-4.88h3.77v4.88h.28a3.58 3.58 0 0 1 3.4 4.715l-.37 1.108a.636.636 0 0 0 .248.73l.079.051a6.038 6.038 0 0 1 2.628 5.88 7.696 7.696 0 0 1-7.619 6.607H8.58a7.696 7.696 0 0 1-7.62-6.61 6.039 6.039 0 0 1 2.63-5.877l.078-.051a.636.636 0 0 0 .249-.73l-.368-1.11a3.582 3.582 0 0 1 3.397-4.713h.281Zm1.883 9.815a2.14 2.14 0 1 0 .002-4.283 2.14 2.14 0 0 0 0 4.281l-.002.002ZM11.24 4.747l-4.293.001V1.705A1.028 1.028 0 0 1 7.975.675l2.235.002a1.027 1.027 0 0 1 1.027 1.028v2.074l.002.968Z" fill="#13141A"/></svg>